<svg width="220" height="56" viewBox="0 0 220 56" fill="none" xmlns="http://www.w3.org/2000/svg">
  <rect width="220" height="56" rx="28" fill="#050505"/>
  <rect x="8" y="8" width="40" height="40" rx="20" fill="#F5D000"/>
  <path d="M22 18H27.3V27.2L35.4 18H41.9L32.4 28.2L42.2 38H35.4L27.3 29.6V38H22V18Z" fill="#050505"/>
  <path d="M64 36.2V19.8H68.3V27L75 19.8H80.1L72.4 27.8L80.5 36.2H75L68.3 29.1V36.2H64Z" fill="#F7F7F0"/>
  <path d="M88.1 36.5C84.2 36.5 81.4 33.8 81.4 30.1C81.4 26.3 84.2 23.7 88.1 23.7C92 23.7 94.8 26.3 94.8 30.1C94.8 33.8 92 36.5 88.1 36.5ZM88.1 33C89.8 33 90.9 31.8 90.9 30.1C90.9 28.3 89.8 27.1 88.1 27.1C86.4 27.1 85.3 28.3 85.3 30.1C85.3 31.8 86.4 33 88.1 33Z" fill="#F7F7F0"/>
  <path d="M97.2 36.2V24H100.9L101.1 25.5C101.9 24.4 103.2 23.7 105 23.7C107.9 23.7 109.6 25.6 109.6 28.8V36.2H105.7V29.5C105.7 28 104.9 27.2 103.6 27.2C102.1 27.2 101.1 28.2 101.1 29.9V36.2H97.2Z" fill="#F7F7F0"/>
  <path d="M117.3 36.5C113.8 36.5 111.5 35 111.3 32.4H115C115.2 33.3 116 33.8 117.3 33.8C118.5 33.8 119.2 33.4 119.2 32.7C119.2 30.6 111.8 32.4 111.8 27.7C111.8 25.3 114 23.7 117.1 23.7C120.3 23.7 122.5 25.2 122.7 27.7H119C118.8 26.9 118.2 26.4 117.1 26.4C116.1 26.4 115.4 26.8 115.4 27.4C115.4 29.4 122.9 27.7 122.9 32.4C122.9 34.9 120.6 36.5 117.3 36.5Z" fill="#F7F7F0"/>
  <path d="M131.2 36.5C127.3 36.5 124.6 33.9 124.6 30.1C124.6 26.3 127.2 23.7 131 23.7C134.8 23.7 137.3 26.2 137.3 29.9C137.3 30.3 137.3 30.7 137.2 31.1H128.4C128.7 32.6 129.7 33.5 131.2 33.5C132.3 33.5 133.1 33.1 133.5 32.3H137.1C136.4 34.8 134.1 36.5 131.2 36.5ZM128.4 28.9H133.5C133.3 27.5 132.4 26.7 131 26.7C129.6 26.7 128.7 27.5 128.4 28.9Z" fill="#F7F7F0"/>
  <path d="M139.7 36.2V19H143.6V36.2H139.7Z" fill="#F7F7F0"/>
  <path d="M146.9 22.6V19.1H150.8V22.6H146.9ZM146.9 36.2V24H150.8V36.2H146.9Z" fill="#F7F7F0"/>
  <path d="M159.1 36.2C156.2 36.2 154.6 34.7 154.6 31.9V27.2H152.5V24H154.6V20.8H158.5V24H161.6V27.2H158.5V31.4C158.5 32.5 159 33 160.1 33H161.7V36.2H159.1Z" fill="#F7F7F0"/>
</svg>
