<svg width="128" height="128" viewBox="0 0 128 128" fill="none" xmlns="http://www.w3.org/2000/svg">
  <rect width="128" height="128" rx="30" fill="#070707"/>
  <rect x="1" y="1" width="126" height="126" rx="29" stroke="#F5D000" stroke-opacity="0.32" stroke-width="2"/>
  <path d="M0 96L128 34V128H0V96Z" fill="#991B1B" fill-opacity="0.42"/>
  <path d="M29 36H58C72 36 80 43 80 54C80 61 76 66 70 69C78 72 83 78 83 87C83 99 74 106 59 106H29V36ZM57 64C62 64 65 61 65 56C65 51 62 49 57 49H44V64H57ZM59 92C65 92 68 89 68 84C68 79 65 76 59 76H44V92H59Z" fill="#F7F7F0"/>
  <path d="M84 106V36H111V51H99V62H110V76H99V91H112V106H84Z" fill="#F5D000"/>
</svg>
