<svg width="128" height="128" viewBox="0 0 128 128" fill="none" xmlns="http://www.w3.org/2000/svg">
  <rect width="128" height="128" rx="30" fill="#070707"/>
  <rect x="1" y="1" width="126" height="126" rx="29" stroke="#D4AF37" stroke-opacity="0.42" stroke-width="2"/>
  <path d="M27 35H43V91H66V106H27V35Z" fill="#F7F7F0"/>
  <path d="M72 107C55 107 44 94 44 70C44 47 55 34 72 34C89 34 100 47 100 70C100 94 89 107 72 107ZM72 91C79 91 83 84 83 70C83 57 79 50 72 50C65 50 61 57 61 70C61 84 65 91 72 91Z" fill="#F5D000"/>
  <path d="M86 35H102V91H124V106H86V35Z" fill="#F7F7F0"/>
</svg>
